# xmcd
#
# Track frame offsets:
#	150
#	12745
#	25810
#	38290
#	55695
#	74358
#	92013
#	105020
#	118470
#	149758
#	161858
#	194763
#
# Disc length: 2739 seconds
#
# Revision: 1
# Processed by: cddbd v1.5.2PL0 Copyright (c) Steve Scherf et al.
# Submitted via: EasyCDDAExtractor 10.0.6.1
#
DISCID=a80ab10c
DTITLE=eysuhl™ Temtations - Temtations [1990 Della hsd9047] Ain't No Sunshine
DYEAR=1990
DGENRE=Soul
TTITLE0=My Girl
TTITLE1=Since I Lost My Baby
TTITLE2=I Wish It Would Rain
TTITLE3=Just My Imagination
TTITLE4=Ball Of Confusion
TTITLE5=Psychedelic Shack
TTITLE6=I Can't Get Next To You
TTITLE7=You're My Everything
TTITLE8=Papa Was A Rolling Stone
TTITLE9=Hey Girl
TTITLE10=Ain't No Sunshine
TTITLE11=Get Ready
EXTD=
EXTT0=
EXTT1=
EXTT2=
EXTT3=
EXTT4=
EXTT5=
EXTT6=
EXTT7=
EXTT8=
EXTT9=
EXTT10=
EXTT11=
PLAYORDER=
